<?xml version="1.0" encoding="UTF-8"?>
<svg xmlns="http://www.w3.org/2000/svg" width="24" height="24" viewBox="0 0 50 50">
  <title>Quoting Fast Icon</title>
  <defs>
    <linearGradient id="blueGradient" x1="0%" y1="0%" x2="100%" y2="0%">
      <stop offset="0%" style="stop-color:#0047AB;stop-opacity:1" />
      <stop offset="100%" style="stop-color:#00BFFF;stop-opacity:1" />
    </linearGradient>
  </defs>
  <g>
    <!-- Circle outline -->  
    <circle cx="25" cy="25" r="20" fill="transparent" stroke="currentColor" stroke-width="1.5" />
    
    <!-- Speedometer/gauge marks - blue segments -->
    <path d="M25,10 Q25,10 26,10 L27,10 Q28,10 28,12 L27,17 Q26,19 25,19 Q24,19 23,17 L22,12 Q22,10 23,10 L24,10 Q25,10 25,10 Z" fill="#0099FF" transform="rotate(45, 25, 25)" />
    <path d="M25,10 Q25,10 26,10 L27,10 Q28,10 28,12 L27,17 Q26,19 25,19 Q24,19 23,17 L22,12 Q22,10 23,10 L24,10 Q25,10 25,10 Z" fill="#0088FF" transform="rotate(60, 25, 25)" />
    <path d="M25,10 Q25,10 26,10 L27,10 Q28,10 28,12 L27,17 Q26,19 25,19 Q24,19 23,17 L22,12 Q22,10 23,10 L24,10 Q25,10 25,10 Z" fill="#0077FF" transform="rotate(75, 25, 25)" />
    <path d="M25,10 Q25,10 26,10 L27,10 Q28,10 28,12 L27,17 Q26,19 25,19 Q24,19 23,17 L22,12 Q22,10 23,10 L24,10 Q25,10 25,10 Z" fill="#0066FF" transform="rotate(90, 25, 25)" />
    <path d="M25,10 Q25,10 26,10 L27,10 Q28,10 28,12 L27,17 Q26,19 25,19 Q24,19 23,17 L22,12 Q22,10 23,10 L24,10 Q25,10 25,10 Z" fill="#0055FF" transform="rotate(105, 25, 25)" />
    <path d="M25,10 Q25,10 26,10 L27,10 Q28,10 28,12 L27,17 Q26,19 25,19 Q24,19 23,17 L22,12 Q22,10 23,10 L24,10 Q25,10 25,10 Z" fill="#0044FF" transform="rotate(120, 25, 25)" />
    <path d="M25,10 Q25,10 26,10 L27,10 Q28,10 28,12 L27,17 Q26,19 25,19 Q24,19 23,17 L22,12 Q22,10 23,10 L24,10 Q25,10 25,10 Z" fill="#0033FF" transform="rotate(135, 25, 25)" />
  </g>
</svg>
