<?xml version="1.0" encoding="UTF-8"?>
<svg width="137px" height="24px" viewBox="0 0 200 50" version="1.1" xmlns="http://www.w3.org/2000/svg">
    <title>Quoting Fast Logo</title>
    <g stroke="none" stroke-width="1" fill="none" fill-rule="evenodd">
        <g fill-rule="nonzero">
            <path d="M46.8,25.2c0,11-8.9,19.9-19.9,19.9s-19.9-8.9-19.9-19.9S15.9,5.3,26.9,5.3S46.8,14.2,46.8,25.2z" fill="currentColor"/>
            <path d="M26.9,10.5c-8.1,0-14.7,6.6-14.7,14.7s6.6,14.7,14.7,14.7s14.7-6.6,14.7-14.7S35,10.5,26.9,10.5z M30.5,28.8l-6.5,3.7 c-0.6,0.3-1.4-0.1-1.4-0.8V20.3c0-0.7,0.8-1.1,1.4-0.8l6.5,3.7c0.6,0.3,0.6,1.2,0,1.5L26.9,27l3.6,0.3C31.1,27.6,31.1,28.5,30.5,28.8z" fill="#29ABE2"/>
            <path d="M16.5,25.2c0-2.9,0.8-5.6,2.2-7.9c-3.6,2.7-5.9,7-5.9,11.8c0,8.1,6.6,14.7,14.7,14.7c4.9,0,9.2-2.4,11.8-6 c-2.3,1.4-5,2.2-7.9,2.2C23.1,39.9,16.5,33.3,16.5,25.2z" fill="currentColor" fill-opacity="0.5"/>
            <g transform="translate(55, 22)" fill="currentColor">
                <path d="M0,3.1c0-4.2,3.2-7.5,7.4-7.5c2.5,0,4.5,1,5.8,2.5l-2.3,1.9c-0.9-1-2.1-1.6-3.4-1.6c-2.6,0-4.5,1.9-4.5,4.6S5,7.7,7.6,7.7c1.3,0,2.5-0.6,3.4-1.6l2.3,1.9C12,9.6,10,10.6,7.5,10.6C3.3,10.6,0,7.4,0,3.1z"/>
                <path d="M15.3,3.1c0-4.2,3.3-7.5,7.7-7.5s7.7,3.3,7.7,7.5s-3.3,7.5-7.7,7.5S15.3,7.3,15.3,3.1z M27.7,3.1c0-2.7-2-4.7-4.7-4.7s-4.7,2-4.7,4.7s2,4.7,4.7,4.7S27.7,5.8,27.7,3.1z"/>
                <path d="M32.7,8.9V-4.2h3v13.1H32.7z"/>
                <path d="M46.1,8.9H43l-5.4-8.5v8.5h-3V-4.2h3.1l5.4,8.5V-4.2h3V8.9z"/>
                <path d="M59.4,8.9h-3.2l-1.3-2.9h-5.9L47.8,9h-3.2l5.8-13.1h3.3L59.4,8.9z M53.8,3.3L51.8-1l-2.1,4.3H53.8z"/>
            </g>
            <g transform="translate(120, 22)" fill="currentColor">
                <path d="M0,3.1c0-4.2,3.3-7.5,7.7-7.5c2.8,0,5.1,1.4,6.3,3.6l-2.6,1.4C10.6,0.7,9.3,0,7.7,0C5,0,3,2,3,3.1s2,4.7,4.7,4.7c1.6,0,2.9-0.7,3.7-1.8l2.6,1.5c-1.3,2.2-3.5,3.6-6.3,3.6C3.3,10.6,0,7.3,0,3.1z"/>
                <path d="M16.1,8.9V-4.2h10.6v2.7h-7.6v3.4h7.4V4.6h-7.4v4.3H16.1z"/>
                <path d="M28.7,8.9V-4.2h3v10.4h6.3v2.7H28.7z"/>
                <path d="M39.5,8.9V-4.2h3v13.1H39.5z"/>
            </g>
        </g>
    </g>
</svg>
