<?xml version="1.0" encoding="UTF-8"?>
<svg width="240" height="60" viewBox="0 0 240 60" xmlns="http://www.w3.org/2000/svg">
  <title>Quoting Fast Logo</title>
  
  <!-- Gauge/speedometer icon -->
  <g transform="translate(15, 30)">
    <circle cx="15" cy="0" r="15" fill="none" stroke="#004080" stroke-width="1.5" />
    <!-- Blue gauge segments -->
    <path d="M8,-10 A15,15 0 0,1 15,-15" stroke="#0066CC" stroke-width="3" fill="none" />
    <path d="M0,-5 A15,15 0 0,1 8,-10" stroke="#0077DD" stroke-width="3" fill="none" />
    <path d="M-5,0 A15,15 0 0,1 0,-5" stroke="#0088EE" stroke-width="3" fill="none" />
    <path d="M-10,8 A15,15 0 0,1 -5,0" stroke="#0099FF" stroke-width="3" fill="none" />
  </g>
  
  <!-- "QUOTING FAST" text -->
  <g fill="#004080" transform="translate(40, 30)">
    <!-- Q -->
    <path d="M17.5,0 C17.5,-5.5 13,-10 7.5,-10 C2,-10 -2.5,-5.5 -2.5,0 C-2.5,5.5 2,10 7.5,10 C10.5,10 13,8.5 14.5,6 L17.5,9 L20,6.5 L17,3.5 C17.5,2.5 17.5,1.25 17.5,0 Z M12.5,0 C12.5,2.75 10.25,5 7.5,5 C4.75,5 2.5,2.75 2.5,0 C2.5,-2.75 4.75,-5 7.5,-5 C10.25,-5 12.5,-2.75 12.5,0 Z" />
    
    <!-- U -->
    <path d="M2.5,-10 L7.5,-10 L7.5,0 C7.5,2.75 9.75,5 12.5,5 C15.25,5 17.5,2.75 17.5,0 L17.5,-10 L22.5,-10 L22.5,0 C22.5,5.5 18,10 12.5,10 C7,10 2.5,5.5 2.5,0 Z" transform="translate(25, 0)" />
    
    <!-- O -->
    <path d="M17.5,0 C17.5,-5.5 13,-10 7.5,-10 C2,-10 -2.5,-5.5 -2.5,0 C-2.5,5.5 2,10 7.5,10 C13,10 17.5,5.5 17.5,0 Z M12.5,0 C12.5,2.75 10.25,5 7.5,5 C4.75,5 2.5,2.75 2.5,0 C2.5,-2.75 4.75,-5 7.5,-5 C10.25,-5 12.5,-2.75 12.5,0 Z" transform="translate(52.5, 0)" />
    
    <!-- T -->
    <path d="M0,-10 L15,-10 L15,-5 L10,-5 L10,10 L5,10 L5,-5 L0,-5 Z" transform="translate(75, 0)" />
    
    <!-- I -->
    <path d="M0,-10 L5,-10 L5,10 L0,10 Z" transform="translate(95, 0)" />
    
    <!-- N -->
    <path d="M0,-10 L5,-10 L5,10 L0,10 L0,-10 Z M15,-10 L20,-10 L20,10 L15,10 L15,-10 Z M5,-10 L15,10 L5,10 Z" transform="translate(105, 0)" />
    
    <!-- G -->
    <path d="M17.5,0 C17.5,-5.5 13,-10 7.5,-10 C2,-10 -2.5,-5.5 -2.5,0 C-2.5,5.5 2,10 7.5,10 C11,10 14,8 15.5,5 L11,5 C10,6 8.75,6.5 7.5,6.5 C4.5,6.5 2,4 2,0 C2,-4 4.5,-6.5 7.5,-6.5 C10,-6.5 12,-4.5 12.5,-2 L7.5,-2 L7.5,2 L17.5,2 L17.5,0 Z" transform="translate(130, 0)" />
    
    <!-- F -->
    <path d="M0,15 L5,15 L5,5 L12.5,5 L12.5,0 L5,0 L5,-5 L15,-5 L15,-10 L0,-10 Z" transform="translate(165, -5)" />
    
    <!-- A -->
    <path d="M0,10 L5,10 L6,-2.5 L9,-2.5 L10,10 L15,10 L10,-10 L5,-10 Z" transform="translate(185, 0)" />
    
    <!-- S -->
    <path d="M0,-7.5 L4,-7.5 C4,-7.5 4,-5 7.5,-5 C11,-5 11,-2.5 7.5,-2.5 L0,0 L0,5 C0,8 3,10 7.5,10 C12,10 15,7.5 15,5 L11,5 C11,5 11,5 7.5,5 C4,5 4,2.5 7.5,2.5 L15,0 L15,-5 C15,-8 12,-10 7.5,-10 C3,-10 0,-8 0,-5 Z" transform="translate(205, 0)" />
    
    <!-- T -->
    <path d="M0,-10 L15,-10 L15,-5 L10,-5 L10,10 L5,10 L5,-5 L0,-5 Z" transform="translate(225, 0)" />
  </g>
</svg>
